<?xml version="1.0" standalone="no"?>
<svg viewBox="0 0 200 200" xmlns="http://www.w3.org/2000/svg">
  <path fill="#8A3FFC" d="M22.3,-34.9C32.3,-23.4,46.1,-21.5,47.7,-15.7C49.3,-10,38.7,-0.4,37.4,14.8C36.1,30.1,44.2,51,39.5,58.5C34.9,65.9,17.4,59.8,0.1,59.7C-17.3,59.6,-34.6,65.5,-41.7,58.9C-48.9,52.3,-45.9,33.1,-52,16.4C-58.1,-0.3,-73.3,-14.5,-73,-26.4C-72.8,-38.2,-57.2,-47.7,-42.5,-57.6C-27.7,-67.5,-13.9,-77.8,-3.9,-72.5C6.2,-67.2,12.3,-46.3,22.3,-34.9Z" transform="translate(100 100)" />
</svg>
